<?xml version="1.0" standalone="no"?>
<!DOCTYPE svg PUBLIC "-//W3C//DTD SVG 20010904//EN"
 "http://www.w3.org/TR/2001/REC-SVG-20010904/DTD/svg10.dtd">
<svg version="1.0" xmlns="http://www.w3.org/2000/svg"
 width="1625.000000pt" height="395.000000pt" viewBox="0 0 1625.000000 395.000000"
 preserveAspectRatio="xMidYMid meet">

<g transform="translate(0.000000,395.000000) scale(0.100000,-0.100000)"
fill="#000000" stroke="none">
<path d="M8454 3332 c-6 -4 -14 -29 -17 -56 -6 -40 -4 -51 10 -62 10 -7 15
-16 10 -20 -4 -4 -13 -2 -19 4 -20 20 -25 14 -38 -35 -6 -26 -16 -53 -20 -59
-5 -6 -11 -37 -12 -70 -3 -68 14 -80 42 -29 16 28 20 30 86 33 l70 3 12 -36
c10 -27 19 -35 38 -35 31 0 31 24 1 121 -13 41 -34 110 -47 154 -12 44 -28 83
-34 87 -6 4 -24 8 -41 8 -16 0 -35 -4 -41 -8z m74 -14 c-3 -7 -11 -13 -18 -13
-7 0 -15 6 -17 13 -3 7 4 12 17 12 13 0 20 -5 18 -12z m-4 -104 c3 -9 6 -29 6
-44 0 -18 8 -34 20 -43 18 -13 19 -15 5 -21 -9 -3 -37 -6 -61 -6 -39 0 -44 2
-44 23 0 13 -5 28 -12 35 -9 9 -6 12 15 12 22 0 27 5 27 23 0 38 32 53 44 21z
m-1 -151 c-7 -2 -19 -2 -25 0 -7 3 -2 5 12 5 14 0 19 -2 13 -5z"/>
<path d="M12334 2905 c-28 -6 -60 -10 -70 -8 -40 7 -200 7 -212 0 -16 -10 -16
-42 1 -54 23 -19 113 -28 252 -26 77 1 424 4 770 6 347 3 633 5 636 6 8 1 -1
53 -12 67 -8 10 -739 10 -844 0 -22 -2 -44 -1 -50 2 -14 9 -335 10 -340 2 -5
-8 -55 -1 -70 10 -5 4 -33 2 -61 -5z m-244 -45 c0 -5 -4 -10 -10 -10 -5 0 -10
5 -10 10 0 6 5 10 10 10 6 0 10 -4 10 -10z m1200 -10 c0 -5 -2 -10 -4 -10 -3
0 -8 5 -11 10 -3 6 -1 10 4 10 6 0 11 -4 11 -10z"/>
<path d="M14073 2905 c-23 -7 -44 -10 -47 -7 -19 19 -146 7 -146 -13 0 -8 -10
-21 -22 -29 l-21 -15 24 -9 c14 -6 276 -9 609 -9 606 1 655 -2 718 -41 12 -8
26 -12 29 -8 4 3 21 -10 39 -29 17 -19 36 -35 42 -35 11 0 72 -72 72 -85 0 -4
6 -21 14 -38 32 -74 36 -100 38 -247 2 -155 -6 -216 -23 -189 -6 10 -10 6 -18
-14 -6 -15 -15 -27 -21 -27 -5 0 -10 -6 -10 -13 0 -20 -52 -75 -82 -86 -26
-10 -47 -59 -33 -81 10 -16 72 -12 79 5 3 8 10 15 17 15 20 0 79 74 79 100 0
14 11 38 25 54 14 16 25 35 25 43 0 7 3 13 8 13 43 0 45 343 2 395 -6 7 -12
24 -14 37 -4 35 -35 100 -45 93 -5 -3 -14 7 -19 23 -16 39 -40 64 -104 107
-32 20 -58 42 -58 47 0 7 -4 7 -13 0 -8 -7 -18 -6 -31 4 -11 8 -28 14 -37 14
-10 0 -19 5 -21 11 -2 7 -52 12 -136 13 -73 2 -134 5 -137 8 -3 2 -26 2 -53
-2 -26 -3 -100 -5 -165 -4 -65 1 -117 -3 -117 -8 0 -5 -6 -6 -12 -1 -7 4 -87
9 -178 10 -91 1 -176 4 -190 6 -14 3 -44 -1 -67 -8z m1344 -807 c-3 -8 -6 -5
-6 6 -1 11 2 17 5 13 3 -3 4 -12 1 -19z"/>
<path d="M10016 2903 c-2 -2 -126 -4 -276 -3 -196 0 -276 -3 -287 -11 -10 -9
-64 -10 -211 -4 -108 4 -231 7 -272 6 -168 -3 -539 -1 -603 3 -37 2 -69 0 -72
-4 -2 -4 -133 -7 -291 -6 -157 0 -288 -2 -290 -6 -6 -10 -164 -5 -164 5 0 5
-10 7 -22 5 -14 -2 -24 -13 -29 -31 -4 -15 -3 -25 1 -22 5 3 11 2 14 -3 2 -4
-5 -9 -16 -9 -17 -2 -19 2 -14 28 5 29 5 29 -42 29 -27 0 -53 -5 -60 -12 -9
-9 -12 -8 -12 5 0 15 -12 17 -104 16 -86 0 -106 -4 -111 -16 -4 -13 -8 -14
-17 -5 -17 17 -58 15 -65 -4 -6 -15 -7 -15 -19 1 -12 16 -35 17 -293 14 -205
-3 -284 -8 -293 -17 -15 -15 -70 -16 -84 -2 -8 8 -19 8 -38 0 -15 -5 -42 -10
-61 -10 -31 0 -34 -2 -33 -30 1 -28 18 -45 18 -17 0 8 3 8 9 -2 8 -12 33 -13
143 -7 73 5 356 7 628 7 488 -2 549 -2 804 -2 71 1 132 -2 137 -5 5 -3 9 -2 9
3 0 4 61 8 135 8 120 0 136 2 148 19 12 17 14 17 20 3 5 -13 22 -16 94 -16 54
0 90 5 95 12 5 8 13 8 31 -2 19 -10 96 -12 338 -10 173 1 373 0 444 -3 74 -3
138 -1 148 4 10 5 64 9 120 8 56 -1 179 -2 272 -1 94 0 231 0 305 0 403 -2
902 -1 1355 2 l510 4 0 40 0 40 -417 0 c-230 0 -418 -3 -418 -7 0 -6 -319 -4
-505 3 -33 1 -107 1 -165 0 -58 -1 -192 -1 -298 1 -106 3 -194 3 -196 1z
m-1751 -63 c3 -5 -1 -10 -9 -10 -9 0 -16 5 -16 10 0 6 4 10 9 10 6 0 13 -4 16
-10z m-590 -20 c3 -5 1 -10 -4 -10 -6 0 -11 5 -11 10 0 6 2 10 4 10 3 0 8 -4
11 -10z"/>
<path d="M4926 2860 c-18 -13 -66 -15 -305 -13 -174 2 -289 7 -295 13 -12 12
-69 13 -82 1 -9 -9 -632 -24 -906 -23 -123 1 -138 -1 -138 -16 -1 -15 -2 -15
-13 -2 -10 13 -46 16 -222 17 -115 1 -394 3 -618 5 -225 2 -411 0 -414 -5 -9
-15 -776 -14 -855 1 -43 9 -130 0 -233 -23 -46 -10 -89 -32 -109 -54 -10 -11
-22 -18 -26 -16 -10 6 -111 -85 -105 -94 7 -12 78 -12 86 0 3 6 12 11 20 13 8
1 39 18 69 38 38 25 71 38 109 43 30 3 59 9 64 12 15 9 128 14 140 6 21 -14
260 -18 265 -5 1 4 28 6 60 4 142 -7 511 -3 529 7 12 6 85 8 189 6 93 -2 206
-4 251 -5 45 -1 87 1 93 5 7 4 17 1 22 -6 5 -8 11 -10 14 -4 4 10 92 10 299
-1 55 -2 262 1 460 8 399 14 905 17 948 6 16 -4 27 -3 27 4 0 6 23 8 68 3 99
-10 587 -10 603 0 14 9 432 8 461 -1 9 -2 19 -1 21 3 3 5 61 8 129 7 68 -1
247 -2 398 -2 151 -1 283 -1 293 -1 12 0 17 8 17 27 0 33 -51 62 -74 43 -15
-12 -103 -12 -121 0 -12 8 -42 5 -68 -6 -10 -4 -28 -3 -40 4 -16 8 -159 12
-506 14 -416 2 -487 0 -505 -13z"/>
<path d="M590 2616 c-7 -17 -9 -18 -9 -3 -1 9 -7 17 -15 17 -7 0 -16 -8 -20
-17 -3 -10 -15 -31 -26 -48 -11 -16 -29 -49 -39 -71 -11 -23 -24 -45 -30 -49
-6 -3 -8 -17 -5 -31 4 -13 2 -24 -4 -24 -6 0 -8 -9 -5 -21 4 -12 0 -25 -8 -29
-14 -9 -15 -40 -8 -157 3 -48 8 -73 16 -73 7 0 10 -6 7 -14 -3 -7 2 -16 10
-19 9 -4 16 -15 16 -26 0 -11 7 -26 15 -35 8 -8 15 -19 15 -25 0 -5 11 -27 25
-47 14 -21 28 -48 31 -60 3 -12 14 -24 24 -27 14 -4 20 -16 22 -48 l3 -44 50
-3 c28 -1 69 -7 92 -13 33 -9 46 -9 58 1 17 14 20 30 5 30 -11 0 -82 75 -89
94 -9 23 -35 41 -56 38 -16 -2 -34 10 -64 46 -22 28 -41 55 -41 62 0 7 -9 29
-20 49 -44 82 -54 166 -34 276 16 87 32 135 53 157 9 9 36 37 60 61 46 48 47
62 5 70 -19 3 -28 -1 -34 -17z"/>
<path d="M7223 2493 c-7 -2 -13 -11 -13 -19 0 -21 -41 -147 -51 -158 -5 -6 -9
-27 -9 -48 0 -21 -4 -38 -10 -38 -5 0 -10 -25 -10 -55 0 -30 2 -55 5 -55 19 0
55 27 55 41 0 27 25 36 82 29 38 -5 56 -13 70 -31 44 -58 51 -61 68 -30 10 20
9 24 -25 106 -38 89 -45 109 -45 129 0 11 -7 30 -15 40 -8 11 -15 28 -15 37 0
19 -45 60 -64 58 -6 0 -17 -3 -23 -6z m42 -120 c27 -61 42 -118 34 -124 -22
-13 -93 7 -86 24 2 7 10 36 17 65 14 55 23 63 35 35z"/>
<path d="M8453 2481 c3 -14 0 -21 -9 -21 -8 0 -17 -8 -21 -17 -3 -10 -17 -47
-31 -83 -14 -36 -25 -79 -25 -97 1 -18 -5 -37 -13 -44 -18 -15 -18 -63 1 -79
21 -17 50 -8 53 18 2 12 12 27 23 32 15 8 18 17 12 38 -6 25 -5 26 11 13 9 -8
15 -20 12 -26 -3 -8 10 -15 35 -19 32 -5 44 -14 61 -42 15 -25 26 -34 42 -32
17 2 21 9 20 40 -1 20 -9 53 -18 72 -9 19 -19 48 -22 65 -4 17 -10 31 -15 31
-5 0 -9 10 -9 23 0 12 -7 35 -15 51 -8 15 -15 39 -15 52 0 26 -3 29 -49 39
-31 7 -33 5 -28 -14z m2 -61 c3 -5 -1 -10 -9 -10 -9 0 -16 5 -16 10 0 6 4 10
9 10 6 0 13 -4 16 -10z m32 -49 c3 -11 11 -22 18 -24 7 -3 12 -21 11 -44 l-1
-38 -52 -3 c-34 -2 -53 1 -53 8 0 6 4 9 9 5 13 -8 29 24 37 74 7 43 22 54 31
22z"/>
<path d="M9958 2483 c-8 -10 -20 -38 -27 -63 -7 -25 -22 -65 -33 -90 -11 -24
-20 -56 -20 -70 0 -14 -4 -30 -10 -37 -5 -6 -8 -29 -6 -50 2 -31 7 -39 25 -41
17 -3 26 3 32 21 13 33 16 34 91 38 l65 4 5 -30 c4 -24 11 -31 33 -33 25 -3
27 -1 27 37 0 40 -17 91 -30 91 -4 0 -11 20 -14 45 -4 24 -11 47 -17 50 -5 4
-9 19 -9 34 0 16 -7 34 -15 41 -8 7 -15 21 -15 31 0 19 -27 39 -53 39 -8 0
-21 -8 -29 -17z m43 -115 c3 -44 7 -61 18 -68 21 -13 8 -45 -19 -48 -47 -4
-53 9 -33 71 16 53 32 74 34 45z"/>
<path d="M10973 2493 c-26 -3 -34 -10 -39 -31 -3 -15 -17 -62 -30 -105 -13
-43 -24 -89 -24 -102 0 -13 -5 -25 -10 -27 -6 -2 -13 -21 -17 -42 -5 -31 -2
-42 11 -52 19 -13 46 -9 46 8 0 26 36 54 68 52 17 -1 32 2 32 6 0 5 12 5 28 1
20 -5 28 -15 30 -35 5 -38 47 -57 66 -30 9 12 11 23 5 29 -5 5 -9 20 -9 35 0
14 -9 39 -20 55 -11 17 -20 41 -20 55 0 14 -6 34 -14 45 -7 11 -16 39 -20 63
-7 47 -25 83 -41 80 -5 0 -25 -3 -42 -5z m34 -130 c34 -82 23 -126 -31 -116
-31 6 -44 29 -27 46 6 6 11 22 11 35 0 25 16 62 28 62 4 0 12 -12 19 -27z"/>
<path d="M12808 2489 c-10 -5 -18 -18 -18 -28 0 -10 -12 -51 -26 -92 -14 -41
-27 -92 -30 -114 -3 -22 -9 -41 -15 -43 -18 -7 -10 -61 11 -72 16 -9 24 -5 51
25 33 36 38 37 142 26 4 -1 7 -10 7 -20 0 -22 25 -51 43 -51 20 0 41 40 28 53
-6 6 -11 18 -11 27 0 8 -6 27 -14 41 -7 14 -19 49 -26 78 -6 28 -16 53 -20 56
-4 3 -11 25 -14 50 -4 25 -11 45 -17 45 -5 0 -9 7 -9 15 0 18 -55 20 -82 4z
m56 -121 c8 -24 20 -60 25 -80 10 -42 10 -42 -51 -32 -28 5 -38 11 -38 25 0
11 5 19 10 19 6 0 10 11 10 24 0 37 12 86 20 86 5 0 15 -19 24 -42z"/>
<path d="M14403 2470 c-3 -17 -10 -33 -14 -36 -5 -3 -9 -16 -9 -29 0 -13 -4
-26 -9 -29 -16 -11 -41 -122 -44 -201 -2 -34 1 -40 21 -43 16 -3 22 2 22 16 0
22 22 43 65 61 29 12 29 13 10 28 -11 8 -27 18 -35 23 -12 7 -13 13 -3 28 6
11 15 36 18 56 8 42 23 56 31 29 3 -10 11 -31 19 -48 22 -49 25 -76 9 -82 -22
-8 -17 -29 11 -47 14 -9 25 -22 25 -30 0 -19 34 -46 58 -46 18 0 22 6 22 32 0
18 -11 55 -24 83 -42 87 -56 123 -56 139 0 9 -7 19 -15 22 -9 4 -15 19 -15 39
0 53 -9 65 -46 65 -30 0 -35 -4 -41 -30z"/>
<path d="M2625 2472 c-12 -12 -4 -43 15 -54 11 -7 20 -23 20 -35 0 -12 4 -24
9 -27 5 -3 12 -23 16 -43 4 -21 11 -43 16 -49 18 -22 -1 -39 -45 -42 -43 -3
-44 -2 -50 32 -11 56 -38 52 -55 -9 -21 -73 -20 -129 1 -133 12 -2 21 6 28 22
9 24 15 26 65 26 61 0 95 -13 95 -35 0 -23 36 -38 60 -25 11 6 20 14 20 18 -1
19 -33 98 -50 119 -10 13 -21 41 -25 63 -4 22 -11 42 -16 46 -5 3 -9 15 -9 28
0 12 -4 26 -9 32 -5 5 -11 20 -13 34 -2 18 -11 26 -35 31 -18 3 -35 4 -38 1z"/>
<path d="M3900 2455 c-5 -14 -13 -38 -16 -53 -4 -15 -10 -31 -14 -37 -9 -12
-32 -82 -35 -105 -6 -49 -19 -101 -26 -106 -13 -7 9 -44 26 -44 7 0 23 16 35
35 20 33 25 35 77 35 45 0 58 -4 74 -22 10 -13 18 -29 19 -35 0 -8 14 -13 36
-13 32 0 35 2 29 23 -20 76 -31 105 -47 126 -10 13 -18 30 -18 37 0 8 -9 31
-20 51 -11 21 -20 49 -20 63 0 60 -81 96 -100 45z m58 -110 c7 -14 12 -37 12
-50 0 -13 8 -28 17 -34 23 -13 11 -24 -31 -28 -40 -4 -51 8 -48 52 3 35 21 85
32 85 4 0 12 -11 18 -25z"/>
<path d="M5695 2472 c-12 -4 -21 -17 -23 -32 -1 -14 -6 -34 -12 -45 -15 -32
-40 -127 -40 -152 0 -13 -7 -38 -16 -55 -21 -40 -6 -79 25 -71 12 3 21 13 21
22 0 30 23 41 87 41 62 0 62 0 71 -32 6 -26 14 -34 35 -36 25 -3 27 -1 27 33
0 20 -7 51 -15 68 -8 18 -21 50 -28 72 -74 206 -74 206 -132 187z m47 -109
c-2 -12 6 -42 17 -67 12 -25 21 -47 21 -50 0 -4 -22 -6 -49 -6 -57 0 -64 10
-45 59 8 18 14 43 14 56 0 27 9 37 30 33 9 -2 14 -12 12 -25z"/>
<path d="M1625 2441 c-3 -12 -11 -21 -16 -21 -5 0 -9 -9 -9 -20 0 -12 -6 -33
-14 -48 -7 -15 -17 -45 -21 -67 -4 -22 -10 -42 -14 -45 -9 -7 -41 -102 -41
-122 0 -14 8 -18 34 -18 28 0 35 4 38 23 3 20 9 22 70 25 64 3 68 2 79 -21 18
-39 69 -44 69 -7 0 28 -32 124 -45 135 -7 6 -18 36 -24 67 -7 31 -19 62 -27
68 -7 7 -14 23 -14 36 0 14 -6 24 -14 24 -8 0 -21 3 -29 6 -10 3 -18 -2 -22
-15z m39 -107 c3 -9 6 -23 6 -32 0 -8 10 -26 21 -38 32 -34 19 -54 -36 -54
-32 0 -45 4 -45 14 0 8 5 18 10 21 6 4 8 10 5 15 -7 12 15 90 26 90 4 0 10 -7
13 -16z"/>
<path d="M14665 1948 c-8 -21 11 -144 28 -178 9 -16 18 -44 22 -60 6 -26 10
-30 28 -24 26 8 46 33 47 56 0 9 5 20 10 23 10 6 14 0 25 -48 5 -24 10 -28 36
-25 27 3 32 9 49 58 19 60 31 118 33 165 2 23 -3 31 -18 33 -33 4 -44 -11 -47
-61 -2 -26 -5 -47 -8 -47 -6 0 -40 76 -40 90 0 6 -13 10 -29 10 -25 0 -29 -4
-35 -39 -9 -55 -22 -58 -38 -9 -16 46 -54 81 -63 56z"/>
<path d="M8894 1935 c-3 -8 2 -50 11 -92 9 -43 20 -94 24 -113 5 -30 11 -35
38 -38 32 -3 43 11 66 78 4 11 6 11 6 -3 2 -30 29 -74 50 -80 35 -9 59 43 88
185 7 36 -4 78 -21 78 -23 0 -46 -36 -46 -73 0 -55 -17 -53 -30 3 -11 47 -14
50 -45 50 -29 0 -33 -4 -39 -34 -4 -19 -13 -39 -21 -46 -13 -11 -15 -8 -15 19
0 19 -6 34 -15 37 -8 4 -15 12 -15 19 0 19 -30 27 -36 10z"/>
<path d="M11240 1935 c0 -9 6 -40 14 -68 8 -29 17 -73 21 -98 11 -87 85 -119
99 -44 8 39 26 47 26 13 1 -39 25 -61 59 -55 24 5 31 2 36 -13 7 -23 45 -27
45 -5 0 8 5 15 10 15 6 0 10 7 10 16 0 12 9 14 43 12 34 -2 42 -7 42 -23 0
-11 -9 -24 -21 -30 -11 -5 -28 -18 -37 -27 -9 -9 -20 -18 -25 -20 -4 -1 -20
-20 -36 -40 -21 -28 -27 -45 -24 -75 l3 -38 113 -3 112 -3 0 31 c0 16 -6 31
-12 32 -27 3 -55 5 -100 7 -27 0 -48 5 -48 10 0 5 25 22 57 38 31 15 65 40 76
55 18 24 19 31 8 70 -17 59 -40 84 -85 91 -49 8 -96 -2 -96 -19 0 -8 -7 -14
-15 -14 -19 0 -19 8 0 54 13 31 20 90 16 134 0 6 -7 12 -15 12 -25 0 -46 -30
-46 -66 0 -19 -4 -34 -8 -34 -18 0 -32 26 -32 57 0 31 -2 33 -35 33 -33 0 -35
-2 -46 -45 -13 -52 -20 -51 -34 8 -10 37 -14 42 -43 45 -24 3 -32 -1 -32 -13z"/>
<path d="M13230 1907 c0 -24 7 -66 15 -93 8 -27 15 -65 15 -85 0 -37 12 -49
50 -49 22 0 50 41 50 75 0 42 17 28 26 -22 9 -45 11 -48 42 -51 18 -2 36 -10
39 -18 10 -27 41 -15 53 21 11 32 15 35 50 35 28 0 42 -5 49 -18 8 -15 1 -25
-36 -55 -25 -20 -50 -37 -54 -37 -5 0 -9 -7 -9 -15 0 -8 -4 -15 -10 -15 -5 0
-10 -7 -10 -15 0 -8 -4 -15 -9 -15 -15 0 -23 -57 -11 -77 10 -16 25 -18 112
-17 79 2 103 5 110 17 22 40 -15 55 -119 49 -22 -1 -33 3 -33 12 0 16 42 46
78 55 14 4 32 21 41 37 9 17 22 29 29 26 17 -5 15 15 -2 21 -7 3 -16 20 -20
39 -11 56 -29 71 -92 76 -51 4 -59 2 -75 -19 l-19 -24 0 30 c0 17 7 48 15 70
21 59 19 92 -5 100 -29 9 -49 -11 -56 -57 -9 -51 -21 -57 -30 -13 -3 19 -10
35 -15 35 -5 0 -9 7 -9 15 0 8 -6 15 -13 15 -25 0 -46 -25 -49 -60 -2 -24 -9
-36 -20 -38 -15 -3 -18 4 -19 35 -1 50 -9 67 -36 71 -21 3 -23 -1 -23 -41z"/>
<path d="M7520 1900 c0 -22 7 -57 15 -77 8 -19 15 -54 15 -77 0 -50 7 -62 43
-75 26 -10 29 -9 43 24 7 19 14 39 14 45 0 26 20 6 26 -25 13 -69 76 -65 93 5
5 19 15 58 22 85 7 28 14 67 17 88 4 36 3 37 -27 37 -29 0 -31 -3 -31 -34 0
-19 -4 -38 -10 -41 -5 -3 -10 -15 -10 -26 0 -33 -17 -21 -25 18 -9 52 -22 73
-45 73 -22 0 -31 -12 -40 -54 -7 -38 -24 -37 -28 1 -4 31 -38 73 -59 73 -9 0
-13 -14 -13 -40z"/>
<path d="M2040 1910 c-7 -13 -7 -32 0 -62 6 -24 17 -71 24 -106 7 -35 18 -68
23 -73 22 -22 47 -4 62 44 8 26 18 47 22 47 5 0 15 -21 22 -47 11 -39 19 -49
39 -51 21 -3 28 3 41 36 8 21 19 56 22 78 4 21 13 49 21 61 18 28 18 41 -1 59
-12 12 -18 12 -35 2 -11 -7 -20 -22 -20 -33 0 -29 -11 -65 -20 -65 -4 0 -13
20 -20 45 -11 38 -17 45 -37 45 -32 0 -53 -22 -53 -54 0 -16 -6 -26 -15 -26
-10 0 -15 10 -15 28 0 32 -26 92 -40 92 -5 0 -14 -9 -20 -20z"/>
<path d="M4410 1915 c-9 -11 -10 -29 -1 -77 6 -34 15 -66 21 -72 5 -5 10 -24
10 -42 0 -49 9 -64 40 -64 31 0 48 16 59 57 l8 28 12 -30 c6 -16 14 -36 16
-42 7 -20 63 -16 73 5 6 9 13 37 17 62 4 25 14 66 23 92 15 44 15 48 -3 67
-17 20 -19 20 -37 5 -10 -10 -18 -27 -18 -38 0 -12 -7 -29 -14 -39 -13 -17
-15 -15 -26 17 -6 20 -20 41 -31 46 -27 15 -59 -4 -59 -35 0 -38 -27 -31 -34
9 -4 18 -15 41 -25 50 -16 15 -20 15 -31 1z"/>
<path d="M6103 1915 c-7 -19 16 -133 28 -141 5 -3 9 -20 9 -39 0 -51 9 -65 41
-65 24 0 28 4 26 23 -1 12 -9 25 -17 29 -8 5 0 5 19 2 l33 -6 -4 41 c-2 26 1
41 8 41 6 0 11 -12 11 -27 0 -16 3 -45 7 -65 6 -33 10 -38 35 -38 18 0 31 6
34 18 4 9 13 35 21 56 8 22 18 67 21 101 6 49 4 64 -9 74 -22 18 -32 8 -47
-49 -13 -52 -33 -62 -35 -18 -1 13 -6 33 -12 44 -10 16 -11 13 -12 -23 0 -24
-5 -43 -11 -43 -5 0 -9 10 -7 23 2 17 -3 23 -20 25 -19 3 -23 0 -19 -15 3 -10
8 -40 12 -68 l6 -50 -20 25 c-11 14 -23 43 -26 65 -10 63 -25 95 -47 95 -10 0
-21 -7 -25 -15z"/>
<path d="M953 1868 c7 -59 35 -175 48 -199 15 -29 41 -19 64 25 25 49 36 50
48 6 11 -44 24 -60 48 -60 21 0 39 28 39 64 0 13 4 26 10 28 12 4 30 130 20
141 -20 22 -45 1 -55 -46 -12 -59 -28 -65 -36 -15 -14 87 -91 105 -101 24 -5
-41 -23 -36 -26 8 -3 39 -23 65 -51 66 -10 0 -12 -11 -8 -42z"/>
<path d="M12970 1837 c0 -26 -31 -30 -210 -33 -96 -1 -178 -3 -182 -3 -10 -1
-10 -42 0 -58 5 -8 66 -12 195 -15 135 -2 192 -7 199 -15 6 -7 20 -13 31 -13
24 0 168 48 181 60 13 13 -31 50 -59 50 -14 0 -28 6 -31 13 -3 8 -10 14 -17
14 -7 0 -33 3 -59 7 -39 6 -48 4 -48 -7z"/>
<path d="M14442 1830 c-9 -14 -23 -20 -50 -20 -21 0 -43 -5 -50 -12 -17 -17
-15 -55 3 -62 9 -3 15 0 15 9 0 19 16 19 24 0 3 -8 14 -15 25 -15 11 0 25 -9
31 -19 8 -16 17 -19 48 -14 20 3 42 9 47 13 6 5 31 11 57 15 35 5 49 12 54 28
7 21 -17 47 -42 47 -6 0 -25 7 -40 15 -16 8 -41 15 -56 15 -16 0 -28 5 -28 10
0 17 -25 11 -38 -10z"/>
<path d="M11011 1814 l-12 -26 -127 2 c-179 4 -172 5 -172 -29 0 -31 10 -39
53 -37 15 1 27 -1 27 -5 0 -4 51 -7 112 -8 90 0 115 -3 124 -16 10 -13 19 -14
60 -4 103 24 124 30 124 39 0 6 7 10 15 10 8 0 15 8 15 18 0 15 -13 22 -57 32
-32 8 -61 18 -65 24 -3 5 -14 11 -24 12 -10 2 -28 5 -39 8 -17 4 -25 -1 -34
-20z m-271 -38 c0 -3 -4 -8 -10 -11 -5 -3 -10 -1 -10 4 0 6 5 11 10 11 6 0 10
-2 10 -4z"/>
<path d="M7318 1813 c-10 -2 -18 -8 -18 -12 0 -5 -59 -12 -130 -16 -140 -7
-157 -15 -139 -62 8 -22 21 -27 64 -24 11 0 60 1 110 1 69 0 91 -4 98 -15 11
-20 28 -19 125 11 65 19 82 29 78 40 -3 9 -6 18 -6 20 0 2 -7 4 -16 4 -9 0
-28 8 -42 19 -15 10 -38 20 -52 23 -14 3 -32 8 -40 11 -8 2 -23 3 -32 0z"/>
<path d="M8610 1806 c0 -13 -12 -16 -75 -16 -74 0 -86 -5 -64 -27 6 -6 8 -16
4 -23 -10 -16 -35 7 -35 32 0 19 -5 20 -132 13 -73 -4 -136 -9 -140 -12 -10
-6 -10 -35 1 -51 9 -15 126 -28 135 -14 5 9 205 7 251 -2 11 -3 28 -5 38 -5 9
-1 17 -8 17 -16 0 -20 16 -19 103 5 81 21 127 37 127 44 0 9 -90 56 -108 56
-11 0 -22 4 -24 10 -1 5 -24 13 -50 16 -40 6 -48 4 -48 -10z"/>
<path d="M9994 1807 c-9 -5 -49 -7 -90 -5 -74 3 -74 3 -88 -27 -13 -26 -13
-32 1 -47 13 -14 32 -18 95 -18 61 0 80 -3 84 -15 8 -20 22 -19 91 4 32 11 70
22 86 25 29 7 37 36 15 53 -45 34 -156 51 -194 30z"/>
<path d="M5869 1786 c-10 -20 -19 -26 -46 -26 -19 0 -33 5 -33 12 0 9 -3 9
-12 0 -8 -8 -58 -12 -159 -12 -141 0 -148 -1 -154 -21 -4 -12 -3 -25 2 -29 4
-5 93 -10 196 -11 132 -1 192 -5 200 -14 14 -13 107 -29 107 -17 0 10 60 32
87 32 38 0 36 29 -4 45 -44 19 -43 19 -59 -2 -12 -17 -13 -17 -14 3 0 23 -32
49 -74 60 -21 5 -28 1 -37 -20z"/>
<path d="M4115 1780 c-7 -22 -2 -22 -175 -21 -63 1 -177 -2 -253 -5 -129 -6
-139 -8 -147 -28 -4 -11 -4 -25 1 -31 5 -5 120 -9 280 -10 257 0 271 -1 285
-20 13 -17 18 -18 59 -7 25 7 54 12 64 12 10 0 29 9 42 21 13 11 31 18 40 16
12 -3 15 1 12 14 -7 26 -18 31 -71 36 -24 2 -56 12 -70 23 -32 26 -59 25 -67
0z"/>
<path d="M10272 1780 c-17 -28 1 -60 33 -60 22 0 25 5 25 34 0 22 -6 36 -16
40 -24 9 -28 8 -42 -14z"/>
<path d="M10554 1786 c-3 -8 -4 -25 -2 -38 2 -18 10 -24 36 -26 31 -3 32 -2
32 31 0 23 -6 37 -16 41 -26 10 -44 7 -50 -8z"/>
<path d="M10412 1758 c2 -27 8 -34 29 -36 20 -2 28 2 32 18 9 34 -2 50 -35 50
-27 0 -29 -2 -26 -32z"/>
<path d="M12280 1775 c-7 -8 -18 -15 -26 -15 -7 0 -16 -16 -20 -35 -3 -19 -10
-35 -15 -35 -18 0 -9 -29 11 -35 29 -9 60 3 60 24 0 24 20 41 47 41 17 0 23
-6 23 -23 0 -31 -22 -77 -37 -77 -19 0 -67 -55 -81 -92 -10 -28 -10 -42 -1
-62 11 -23 18 -26 61 -26 27 0 59 5 70 11 12 6 23 7 27 2 5 -8 14 -9 49 -5 6
1 12 13 12 27 0 33 -27 43 -97 38 -42 -3 -53 -1 -53 11 0 16 78 82 87 73 12
-13 41 13 36 32 -3 10 0 21 5 25 13 8 -3 79 -18 84 -6 2 -15 15 -20 28 -8 21
-16 24 -59 24 -31 0 -53 -5 -61 -15z"/>
<path d="M2772 1753 c-18 -25 -21 -26 -69 -16 -44 8 -194 1 -230 -12 -7 -2
-13 -16 -13 -30 l0 -27 89 7 c113 9 221 -1 221 -21 0 -20 39 -18 143 7 70 17
87 25 87 40 0 13 -10 20 -37 25 -43 8 -130 38 -140 47 -13 14 -32 6 -51 -20z"/>
<path d="M14244 1766 c-18 -8 -21 -19 -22 -65 0 -31 4 -61 9 -67 5 -7 11 -44
13 -84 3 -70 15 -95 41 -86 6 2 9 57 7 147 -3 154 -9 174 -48 155z"/>
<path d="M14963 1760 c-3 -11 -12 -20 -19 -20 -10 0 -14 -13 -14 -45 0 -36 3
-45 18 -45 10 0 22 12 29 30 10 26 16 30 51 30 28 0 42 -5 46 -16 7 -19 -10
-44 -30 -44 -8 0 -14 -6 -14 -14 0 -7 -12 -22 -27 -31 -47 -30 -63 -56 -63
-107 l0 -48 104 0 c120 0 142 11 101 50 -21 20 -31 22 -73 16 -27 -3 -52 -3
-55 1 -10 10 43 63 63 63 20 0 45 26 54 57 9 28 -13 115 -33 130 -9 7 -42 13
-74 13 -51 0 -60 -3 -64 -20z"/>
<path d="M1822 1745 c-9 -11 -34 -15 -90 -16 -202 -1 -207 -2 -210 -28 -2 -13
1 -28 7 -34 6 -6 64 -11 141 -12 118 -2 133 -4 154 -24 25 -24 49 -27 64 -8 6
7 34 24 62 37 27 13 50 27 50 32 0 4 9 8 20 8 11 0 20 7 20 15 0 10 -11 15
-35 15 -19 0 -35 3 -35 8 0 4 -15 7 -32 8 -18 1 -49 4 -68 8 -25 5 -39 2 -48
-9z"/>
<path d="M5202 1751 c-34 -5 -46 -12 -62 -39 -26 -43 -25 -68 2 -75 24 -7 38
7 38 35 0 19 34 32 71 26 41 -5 36 -41 -13 -79 -88 -70 -92 -76 -93 -132 l0
-52 99 -3 c55 -1 103 1 108 6 5 5 6 21 2 36 -6 25 -8 26 -82 26 l-76 0 29 30
c16 17 38 30 50 30 32 0 74 54 71 93 -2 17 -4 39 -5 48 -3 36 -68 59 -139 50z"/>
<path d="M9708 1733 c-1 -28 -1 -40 6 -118 2 -22 4 -61 5 -87 1 -54 28 -92 57
-81 15 6 16 20 10 137 -8 166 -10 176 -47 176 -25 0 -29 -4 -31 -27z"/>
<path d="M3111 1737 c-6 -6 -11 -24 -11 -39 0 -26 2 -28 28 -22 35 8 45 18 40
39 -4 23 -42 37 -57 22z"/>
<path d="M6868 1704 c-2 -25 0 -51 4 -57 4 -7 8 -51 8 -99 0 -100 5 -118 31
-118 21 0 20 -1 24 130 1 41 0 80 -4 85 -3 6 -6 24 -7 40 -3 63 -4 65 -28 65
-21 0 -24 -5 -28 -46z"/>
<path d="M3267 1733 c-28 -27 17 -68 58 -53 21 8 22 39 2 52 -15 10 -51 10
-60 1z"/>
<path d="M3420 1710 c0 -27 3 -30 29 -30 21 0 32 6 36 20 9 28 -2 40 -36 40
-26 0 -29 -3 -29 -30z"/>
<path d="M2333 1654 c4 -42 7 -115 7 -161 0 -87 10 -102 44 -68 12 12 14 36
10 123 -9 193 -6 177 -38 180 l-29 4 6 -78z"/>
<path d="M9541 1716 c-6 -8 -11 -18 -10 -22 5 -28 -3 -44 -21 -44 -16 0 -20
-7 -20 -34 0 -29 5 -36 30 -45 25 -8 30 -15 30 -44 0 -69 61 -70 70 -1 4 31
10 40 28 42 18 3 22 10 22 36 0 29 -4 34 -30 40 -25 4 -30 10 -30 34 0 46 -43
70 -69 38z"/>
<path d="M1300 1711 c0 -6 -8 -11 -18 -11 -35 0 -65 -53 -69 -123 -5 -71 5
-98 55 -155 52 -60 129 -51 185 24 20 27 33 159 17 169 -6 3 -10 15 -10 26 0
11 -4 17 -10 14 -6 -3 -7 1 -4 9 3 9 1 16 -5 16 -6 0 -11 7 -11 15 0 8 -3 15
-7 16 -106 9 -123 9 -123 0z m105 -21 c3 -6 -1 -7 -9 -4 -18 7 -21 14 -7 14 6
0 13 -4 16 -10z m-12 -37 c4 -2 7 -11 7 -19 0 -8 3 -14 8 -14 13 0 30 -50 24
-73 -3 -12 -15 -40 -26 -62 -18 -34 -27 -40 -56 -43 -51 -4 -72 35 -69 126 4
81 24 107 73 96 17 -3 34 -8 39 -11z"/>
<path d="M15181 1682 c-11 -21 -3 -189 10 -214 6 -10 16 -18 24 -18 18 0 16
-9 21 80 8 123 54 141 54 21 0 -76 16 -104 48 -84 24 14 28 97 7 129 -14 22
-14 24 3 24 10 0 23 5 29 11 17 17 33 1 33 -32 0 -22 5 -29 20 -29 11 0 20 -5
20 -11 0 -6 -9 -8 -20 -4 -17 5 -20 2 -20 -27 0 -32 14 -58 31 -58 13 0 38 59
28 66 -5 3 -9 22 -9 44 0 25 -5 40 -16 44 -8 3 -12 11 -9 16 4 6 -4 19 -17 30
-18 15 -38 19 -89 18 -36 -1 -71 2 -77 6 -6 3 -13 2 -17 -4 -4 -7 -12 -7 -25
0 -15 8 -21 6 -29 -8z m259 -88 c0 -8 -5 -12 -10 -9 -6 4 -8 11 -5 16 9 14 15
11 15 -7z"/>
<path d="M11764 1676 c-16 -13 -17 -18 -6 -35 7 -12 12 -55 12 -104 0 -46 2
-86 5 -89 4 -3 17 -1 30 6 23 10 25 16 25 84 0 56 3 74 15 79 22 8 22 7 29
-67 7 -73 26 -101 54 -84 13 9 18 28 20 83 3 63 5 71 22 71 17 0 20 -7 20 -45
0 -31 5 -47 15 -51 8 -4 15 -10 15 -15 0 -5 -7 -9 -15 -9 -19 0 -19 -14 0 -30
32 -26 45 -5 45 74 0 60 -4 81 -22 110 l-23 35 -111 1 c-81 0 -115 -4 -130
-14z"/>
<path d="M13807 1684 c-1 -1 -20 -4 -42 -5 -46 -4 -60 -23 -67 -88 -2 -29 0
-41 9 -41 9 0 13 -15 13 -45 0 -46 7 -53 41 -35 16 9 19 22 19 80 0 63 2 70
20 70 18 0 20 -7 20 -64 0 -80 6 -96 36 -96 23 0 24 3 24 75 0 82 7 93 55 81
30 -8 33 -26 6 -26 -31 0 -37 -21 -11 -42 12 -10 17 -18 11 -18 -16 0 -13 -27
4 -34 8 -3 15 -12 15 -21 0 -21 37 -19 44 3 9 31 -3 126 -19 152 -10 16 -12
21 -14 45 -2 21 -31 19 -31 -2 -1 -17 -1 -17 -10 -1 -8 12 -23 16 -65 15 -31
-1 -57 -2 -58 -3z"/>
<path d="M6545 1669 c-16 -5 -43 -6 -60 -4 -16 3 -50 2 -75 -3 l-45 -8 3 -74
c5 -127 11 -152 35 -148 19 3 22 10 23 58 1 75 11 110 32 110 14 0 17 -11 19
-60 3 -70 16 -100 43 -100 17 0 20 7 21 43 3 103 7 117 38 117 15 0 18 -10 19
-67 1 -73 8 -86 43 -81 23 3 24 6 22 88 -2 83 -2 86 -34 113 -36 29 -39 30
-84 16z"/>
<path d="M7905 1671 c-105 -6 -110 -7 -113 -28 -2 -13 1 -23 7 -23 7 0 11 -23
10 -57 -3 -121 -2 -125 29 -121 26 3 27 5 32 78 5 72 6 75 31 78 20 2 28 -2
32 -20 4 -12 3 -26 -1 -30 -4 -4 -5 -29 -2 -55 4 -40 9 -49 28 -51 17 -3 22 2
23 20 1 13 3 45 4 71 2 45 26 89 40 75 3 -2 9 -38 13 -79 7 -74 7 -74 37 -74
30 0 30 0 30 60 0 33 -4 73 -9 89 -10 31 -54 77 -71 74 -5 -1 -59 -4 -120 -7z"/>
<path d="M9173 1672 c-8 -5 -9 -36 -3 -110 10 -114 13 -122 40 -122 23 0 31
23 29 89 -2 56 8 75 37 69 16 -3 19 -14 21 -71 2 -95 9 -109 43 -87 10 6 17
32 20 82 4 56 8 73 20 73 11 0 16 -15 18 -60 2 -44 9 -66 24 -82 29 -31 35
-29 42 12 10 54 -3 147 -26 175 -18 22 -27 24 -129 27 -61 1 -114 5 -118 7 -4
3 -12 2 -18 -2z"/>
<path d="M4841 1654 c-10 -12 -22 -14 -45 -9 -88 21 -161 7 -140 -27 4 -6 7
-49 6 -95 -2 -83 -2 -83 23 -83 31 0 35 8 38 85 2 53 4 60 22 60 17 0 21 -9
28 -75 5 -41 9 -75 10 -76 1 -1 12 -5 25 -8 25 -8 44 20 22 34 -8 5 -9 9 -1
14 6 4 11 25 11 46 0 47 26 85 47 68 8 -7 13 -35 13 -78 0 -76 15 -94 47 -57
16 18 18 34 15 95 -3 57 -7 75 -20 79 -10 4 -19 9 -22 12 -8 9 -49 31 -57 31
-5 -1 -14 -8 -22 -16z"/>
<path d="M14085 1650 c-4 -6 -15 -8 -25 -5 -13 4 -22 -1 -30 -15 -15 -28 -7
-48 27 -61 22 -8 35 -6 69 11 47 25 49 47 6 68 -32 15 -39 15 -47 2z"/>
<path d="M12090 1616 c0 -29 25 -46 67 -46 39 0 55 13 51 41 -3 22 -9 24 -60
27 -56 3 -58 2 -58 -22z"/>
<path d="M4992 1593 c3 -26 7 -28 49 -31 35 -2 48 1 52 13 13 32 -3 45 -55 45
-48 0 -49 -1 -46 -27z"/>
<path d="M6684 1598 c3 -13 6 -26 6 -30 0 -5 32 -8 70 -8 l70 0 0 30 0 30 -76
0 c-74 0 -76 -1 -70 -22z"/>
<path d="M15023 1071 l-33 -15 0 -152 c0 -141 2 -154 19 -164 35 -18 53 -2 49
44 -3 23 -1 51 3 63 7 18 14 21 41 16 19 -2 53 0 76 7 34 9 46 18 59 46 14 28
15 39 5 54 -7 11 -12 27 -12 35 0 31 -40 56 -98 62 -31 3 -61 9 -67 12 -5 4
-25 0 -42 -8z m136 -67 c26 -5 31 -11 31 -34 0 -41 -30 -62 -81 -58 l-44 3 -3
48 -3 47 34 0 c19 0 49 -3 66 -6z"/>
<path d="M11620 1062 c-6 -2 -10 -69 -10 -173 l0 -169 30 0 30 0 0 65 0 65 55
0 c30 0 73 8 94 17 32 14 41 24 49 54 14 54 -4 112 -37 127 -24 10 -189 21
-211 14z m186 -76 c12 -13 12 -19 -3 -50 -15 -33 -20 -36 -59 -36 -66 0 -74 6
-74 56 l0 44 61 0 c39 0 65 -5 75 -14z"/>
<path d="M13678 1050 c-14 -12 -16 -23 -9 -46 4 -16 5 -53 1 -81 -3 -29 -4
-53 -1 -53 3 0 6 -30 6 -67 0 -63 2 -68 23 -71 24 -4 25 2 22 85 l-1 42 72 3
c51 2 74 7 77 17 3 8 0 11 -7 7 -6 -4 -11 -3 -11 3 0 5 5 13 10 16 6 3 10 1
10 -4 0 -6 7 -11 15 -11 8 0 15 5 15 10 0 6 -5 10 -11 10 -6 0 -8 9 -4 20 5
15 2 20 -14 20 -11 0 -22 -9 -26 -20 -5 -17 -15 -20 -66 -20 l-59 0 0 50 0 50
55 0 c46 0 59 -4 77 -25 24 -28 48 -33 48 -10 0 9 6 12 18 8 9 -3 -2 13 -25
35 -58 56 -89 63 -121 27 -24 -28 -24 -28 -20 -4 3 21 -1 24 -27 25 -16 0 -38
-7 -47 -16z"/>
<path d="M6470 1040 c0 -5 -13 -10 -30 -10 -35 0 -32 15 -32 -179 0 -138 7
-166 37 -141 9 8 15 29 15 59 0 58 12 71 67 71 44 0 108 28 131 58 17 22 15
67 -3 82 -8 7 -15 18 -15 26 0 16 -31 34 -58 34 -15 0 -18 -6 -14 -31 2 -17
11 -33 18 -36 17 -6 18 -55 2 -71 -7 -7 -38 -12 -70 -12 -64 0 -67 4 -52 77 5
26 9 28 38 25 29 -3 34 -1 38 22 3 16 0 27 -9 30 -24 10 -63 7 -63 -4z"/>
<path d="M7710 1041 l-35 -6 0 -165 0 -165 28 -3 c26 -3 27 -2 27 50 1 74 14
88 84 88 85 0 125 29 126 91 0 40 -20 89 -36 89 -6 0 -17 7 -24 15 -13 16 -99
19 -170 6z m154 -73 c36 -51 15 -75 -69 -79 l-60 -3 -3 38 c-4 51 11 66 69 66
38 0 51 -4 63 -22z"/>
<path d="M9188 1042 c-15 -3 -17 -20 -17 -154 -1 -156 4 -178 40 -178 16 0 19
8 19 54 0 31 5 58 13 63 6 6 38 13 69 16 83 8 107 29 108 93 0 60 -18 85 -71
103 -33 11 -119 13 -161 3z m140 -58 c31 -5 32 -7 32 -49 l0 -45 -65 0 -65 0
0 44 c0 24 5 46 11 48 18 6 52 7 87 2z"/>
<path d="M2127 1023 c-17 -4 -18 -17 -16 -144 2 -115 4 -139 17 -139 12 0 12
-3 2 -15 -19 -22 3 -44 28 -29 12 8 18 27 20 68 3 56 3 56 35 57 127 2 157 21
157 98 -1 58 -23 87 -75 99 -45 10 -141 13 -168 5z m166 -64 c25 -45 25 -47
14 -63 -12 -17 -36 -21 -94 -18 -32 2 -33 3 -33 46 0 34 4 45 18 48 17 4 91
-6 95 -13z"/>
<path d="M4553 1022 c-15 -9 -16 -301 -2 -324 15 -24 42 16 41 58 -2 46 21 74
60 74 20 0 28 5 28 17 0 15 1 15 13 -1 10 -14 21 -16 47 -11 28 5 39 15 53 44
24 53 22 63 -23 104 -38 33 -46 36 -123 41 -45 3 -88 2 -94 -2z m154 -54 c29
-11 33 -16 33 -50 l0 -38 -75 0 -75 0 0 30 c0 65 41 86 117 58z m-77 -118 c0
-5 -4 -10 -10 -10 -5 0 -10 5 -10 10 0 6 5 10 10 10 6 0 10 -4 10 -10z"/>
<path d="M1021 1006 c-9 -10 -11 -47 -7 -123 3 -59 1 -114 -3 -122 -12 -20 10
-71 31 -71 14 0 18 8 18 39 0 68 4 71 85 71 65 0 75 3 99 27 14 14 29 36 32
49 7 27 -23 93 -45 102 -9 3 -18 9 -21 14 -5 7 -122 27 -161 28 -9 0 -22 -6
-28 -14z m169 -71 c25 -23 26 -51 1 -65 -25 -13 -101 -13 -101 0 0 6 -7 10
-15 10 -16 0 -19 20 -8 59 5 21 10 23 55 19 27 -3 57 -13 68 -23z"/>
<path d="M14756 914 c-10 -27 3 -34 70 -34 64 0 66 -1 77 -30 9 -24 17 -30 41
-30 29 0 29 0 22 47 -3 26 -12 50 -19 55 -6 4 -51 8 -98 8 -70 0 -88 -3 -93
-16z"/>
<path d="M13485 910 c-22 -4 -30 -8 -18 -9 25 -1 42 -21 19 -21 -9 0 -16 -4
-16 -8 0 -4 11 -8 25 -8 14 0 25 3 25 7 0 4 9 5 20 2 14 -4 20 -14 20 -34 0
-37 20 -49 21 -12 1 21 3 23 6 8 8 -33 20 -39 33 -15 9 16 9 25 0 36 -7 7 -16
11 -21 8 -5 -3 -9 0 -9 5 0 6 9 11 20 11 11 0 20 6 20 14 0 25 -60 31 -145 16z"/>
<path d="M6144 875 c-8 -21 4 -35 31 -35 21 0 35 17 35 41 0 15 -60 10 -66 -6z"/>
<path d="M6220 870 c0 -18 27 -30 68 -30 19 0 22 -5 22 -36 0 -33 2 -35 27
-32 38 4 53 56 29 93 -15 24 -22 26 -81 24 -54 -2 -65 -5 -65 -19z"/>
</g>
</svg>
