<?xml version="1.0" standalone="no"?>
<!DOCTYPE svg PUBLIC "-//W3C//DTD SVG 20010904//EN"
 "http://www.w3.org/TR/2001/REC-SVG-20010904/DTD/svg10.dtd">
<svg version="1.0" xmlns="http://www.w3.org/2000/svg"
 width="1040.000000pt" height="1112.000000pt" viewBox="0 0 1040.000000 1112.000000"
 preserveAspectRatio="xMidYMid meet">

<g transform="translate(0.000000,1112.000000) scale(0.100000,-0.100000)"
fill="#000000" stroke="none">
<path d="M5474 11105 c-282 -61 -522 -292 -606 -581 -30 -103 -32 -313 -4
-414 78 -283 291 -501 568 -581 105 -30 271 -36 377 -15 312 63 549 289 632
601 27 102 29 279 6 377 -73 301 -300 531 -601 608 -94 24 -275 26 -372 5z
m334 -31 c303 -62 544 -300 607 -602 8 -37 15 -84 15 -104 l0 -38 -780 0 -781
0 5 33 c3 17 8 53 11 80 14 111 78 251 163 360 104 132 287 242 463 276 73 14
215 12 297 -5z m622 -821 c0 -66 -39 -205 -80 -288 -234 -469 -849 -578 -1231
-218 -140 133 -217 290 -243 496 l-6 47 780 0 780 0 0 -37z"/>
<path d="M5546 10848 c-18 -28 -24 -66 -12 -70 6 -2 13 11 18 29 9 36 25 50
39 36 6 -6 -3 -63 -27 -156 -29 -116 -40 -146 -55 -150 -42 -11 -17 -27 41
-27 47 0 60 3 60 15 0 8 -8 15 -19 15 -17 0 -17 4 -8 45 9 40 13 44 31 38 53
-18 101 5 144 67 31 47 31 128 -1 158 -28 26 -64 28 -95 6 -21 -15 -25 -15
-41 0 -25 23 -58 20 -75 -6z m184 -19 c22 -40 -25 -177 -65 -193 -46 -17 -63
27 -41 109 23 89 80 134 106 84z"/>
<path d="M4157 10472 c-21 -23 -38 -70 -28 -76 4 -3 15 11 24 30 16 33 42 53
54 41 3 -3 -4 -34 -16 -68 -38 -114 -24 -162 47 -162 23 0 42 -3 42 -7 0 -4
-10 -22 -23 -41 -17 -25 -31 -35 -55 -37 -18 -2 -32 1 -32 7 0 6 5 11 10 11
12 0 13 37 1 44 -15 9 -39 -4 -44 -24 -15 -59 75 -82 133 -34 41 35 54 63 84
182 31 121 33 145 9 140 -13 -2 -25 -28 -43 -97 -20 -74 -31 -98 -52 -114 -22
-17 -30 -18 -43 -7 -20 17 -19 49 5 120 26 76 15 109 -36 110 -11 0 -28 -8
-37 -18z"/>
<path d="M4490 10410 c-8 -5 -25 -10 -37 -10 -13 0 -23 -4 -23 -10 0 -5 14
-10 30 -10 l31 0 -3 -97 -3 -98 -27 -3 c-59 -7 -24 -22 49 -22 46 0 73 4 68 9
-6 5 -19 11 -30 13 -18 3 -20 12 -23 121 -1 64 -6 117 -10 117 -4 0 -14 -5
-22 -10z"/>
<path d="M3740 8425 c-706 -706 -1288 -1281 -1292 -1279 -5 3 -8 20 -6 37 5
58 -23 37 -47 -34 -13 -36 -33 -84 -46 -107 -13 -22 -20 -44 -16 -48 4 -4 42
9 84 29 43 20 93 39 111 43 42 9 42 41 -1 36 -14 -2 -32 0 -38 4 -7 4 493 511
1276 1294 1030 1030 1284 1289 1273 1298 -11 9 -271 -246 -1298 -1273z"/>
<path d="M6260 9692 c0 -4 578 -585 1284 -1291 707 -707 1283 -1288 1280
-1293 -3 -4 -23 -8 -45 -8 -61 0 -44 -19 43 -50 42 -14 88 -34 103 -44 15 -10
33 -15 41 -12 12 4 8 17 -16 63 -17 31 -38 81 -46 110 -19 65 -44 73 -44 13 0
-22 -3 -40 -8 -40 -4 0 -583 576 -1287 1280 -704 704 -1286 1280 -1292 1280
-7 0 -13 -3 -13 -8z"/>
<path d="M3919 8468 c-41 -46 -38 -69 5 -29 12 11 33 23 49 26 37 10 36 -8 -7
-112 -27 -67 -31 -85 -20 -94 17 -14 38 19 53 86 29 123 30 125 57 125 26 0
26 -1 17 -52 -18 -115 -2 -192 32 -157 12 12 13 21 5 46 -6 17 -10 59 -8 94
l3 64 44 5 c25 3 46 11 49 18 3 9 -26 12 -123 12 l-126 0 -30 -32z"/>
<path d="M7859 8468 c-41 -46 -38 -69 5 -29 12 11 33 23 49 26 37 10 36 -8 -7
-112 -27 -67 -31 -85 -20 -94 17 -14 38 19 53 86 29 123 30 125 57 125 26 0
26 -1 17 -52 -18 -115 -2 -192 32 -157 12 12 13 21 5 46 -6 17 -10 59 -8 94
l3 64 44 5 c25 3 46 11 49 18 3 9 -26 12 -123 12 l-126 0 -30 -32z"/>
<path d="M4300 8430 c-8 -5 -25 -10 -37 -10 -13 0 -23 -4 -23 -10 0 -5 14 -10
30 -10 l31 0 -3 -97 -3 -98 -27 -3 c-59 -7 -24 -22 49 -22 46 0 73 4 68 9 -6
5 -19 11 -30 13 -18 3 -20 12 -23 121 -1 64 -6 117 -10 117 -4 0 -14 -5 -22
-10z"/>
<path d="M8183 8424 c-30 -26 -39 -62 -18 -70 23 -9 42 11 27 29 -16 18 4 37
38 37 35 0 50 -17 50 -58 0 -28 -11 -45 -65 -101 -36 -37 -65 -71 -65 -74 0
-4 38 -7 84 -7 l84 0 5 33 c6 38 -1 49 -14 24 -7 -12 -23 -17 -56 -17 l-46 0
61 58 c67 62 77 91 44 132 -25 31 -99 39 -129 14z"/>
<path d="M1600 7184 c-233 -46 -423 -166 -551 -347 -95 -136 -139 -280 -139
-463 0 -137 23 -234 84 -359 104 -211 295 -365 527 -426 114 -30 280 -30 394
0 384 102 632 435 612 825 -6 128 -24 202 -73 305 -104 221 -295 382 -529 446
-59 16 -275 28 -325 19z m217 -35 c363 -50 635 -330 678 -696 l7 -63 -782 0
-783 0 7 71 c30 299 246 564 536 658 118 38 216 47 337 30z m678 -846 c-46
-404 -376 -703 -775 -703 -260 1 -492 121 -640 332 -77 109 -140 289 -140 398
l0 30 781 0 780 0 -6 -57z"/>
<path d="M1606 6908 c-18 -28 -24 -66 -12 -70 6 -2 13 11 18 29 9 36 25 50 39
36 6 -6 -3 -63 -27 -156 -29 -116 -40 -146 -55 -150 -42 -11 -17 -27 41 -27
47 0 60 3 60 15 0 8 -8 15 -19 15 -17 0 -17 4 -8 45 9 40 13 44 31 38 53 -18
101 5 144 67 31 47 31 128 -1 158 -28 26 -64 28 -95 6 -21 -15 -25 -15 -41 0
-25 23 -58 20 -75 -6z m184 -19 c22 -40 -25 -177 -65 -193 -46 -17 -63 27 -41
109 23 89 80 134 106 84z"/>
<path d="M9430 7176 c-309 -66 -552 -297 -631 -601 -29 -112 -29 -289 0 -399
78 -295 309 -520 607 -592 100 -24 276 -22 379 5 148 39 263 105 372 212 170
167 255 390 240 627 -8 123 -27 194 -82 307 -50 104 -127 201 -217 275 -71 58
-214 131 -303 155 -83 22 -283 28 -365 11z m355 -46 c238 -61 435 -236 528
-470 27 -70 44 -147 49 -220 l3 -45 -777 -3 -778 -2 0 42 c0 66 36 200 75 280
112 234 332 397 590 437 81 13 218 4 310 -19z m579 -822 c-18 -157 -84 -317
-177 -429 -97 -116 -248 -213 -398 -256 -49 -13 -99 -18 -209 -17 -130 0 -153
3 -225 27 -129 43 -220 100 -316 196 -130 130 -210 293 -225 461 l-7 70 782 0
782 0 -7 -52z"/>
<path d="M9534 6148 c-58 -51 -79 -124 -53 -182 16 -33 57 -50 92 -37 30 12
31 10 17 -41 -8 -26 -17 -38 -32 -40 -12 -2 -23 -9 -26 -15 -3 -10 14 -13 62
-13 64 0 98 16 57 27 -12 3 -21 8 -21 12 0 3 16 74 37 158 20 84 34 155 30
159 -4 4 -15 0 -26 -10 -16 -15 -19 -15 -31 -1 -21 25 -66 18 -106 -17z m100
-10 c7 -12 7 -33 -2 -75 -15 -74 -40 -108 -78 -108 -26 0 -29 4 -32 34 -10
103 72 212 112 149z"/>
<path d="M2840 6674 c-56 -7 -202 -34 -242 -45 -22 -6 -38 -16 -38 -24 0 -19
-2 -19 105 5 334 72 611 32 737 -108 122 -135 42 -306 -176 -375 -61 -19 -93
-22 -226 -22 -151 0 -250 9 -250 23 0 4 14 15 32 25 45 26 25 43 -34 29 -24
-6 -76 -14 -115 -18 -50 -4 -73 -11 -73 -20 0 -7 9 -16 20 -19 12 -4 54 -34
95 -66 81 -65 110 -70 74 -13 -12 19 -19 37 -17 40 3 2 39 -1 79 -8 106 -17
300 -14 382 5 185 45 296 153 297 286 0 130 -109 235 -295 285 -59 17 -284 29
-355 20z"/>
<path d="M227 6542 c-21 -23 -38 -70 -28 -76 4 -3 15 11 24 30 16 33 42 53 54
41 3 -3 -4 -34 -16 -68 -38 -114 -24 -162 47 -162 23 0 42 -3 42 -7 0 -4 -10
-22 -23 -41 -17 -25 -31 -35 -55 -37 -18 -2 -32 1 -32 7 0 6 5 11 10 11 12 0
13 37 1 44 -15 9 -39 -4 -44 -24 -15 -59 75 -82 133 -34 41 35 54 63 84 182
31 121 33 145 9 140 -13 -2 -25 -28 -43 -97 -20 -74 -31 -98 -52 -114 -22 -17
-30 -18 -43 -7 -20 17 -19 49 5 120 26 76 15 109 -36 110 -11 0 -28 -8 -37
-18z"/>
<path d="M8097 6542 c-21 -23 -38 -70 -28 -76 4 -3 15 11 24 30 16 33 42 53
54 41 3 -3 -4 -34 -16 -68 -38 -114 -24 -162 47 -162 23 0 42 -3 42 -7 0 -4
-10 -22 -23 -41 -17 -25 -31 -35 -55 -37 -18 -2 -32 1 -32 7 0 6 5 11 10 11
12 0 13 37 1 44 -15 9 -39 -4 -44 -24 -15 -59 75 -82 133 -34 41 35 54 63 84
182 31 121 33 145 9 140 -13 -2 -25 -28 -43 -97 -20 -74 -31 -98 -52 -114 -22
-17 -30 -18 -43 -7 -20 17 -19 49 5 120 26 76 15 109 -36 110 -11 0 -28 -8
-37 -18z"/>
<path d="M3689 6498 c-41 -46 -38 -69 5 -29 12 11 33 23 49 26 37 10 36 -8 -7
-112 -27 -67 -31 -85 -20 -94 17 -14 38 19 53 86 29 123 30 125 57 125 26 0
26 -1 17 -52 -18 -115 -2 -192 32 -157 12 12 13 21 5 46 -6 17 -10 59 -8 94
l3 64 44 5 c25 3 46 11 49 18 3 9 -26 12 -123 12 l-126 0 -30 -32z"/>
<path d="M503 6464 c-30 -26 -39 -62 -18 -70 23 -9 42 11 27 29 -16 18 4 37
38 37 35 0 50 -17 50 -58 0 -28 -11 -45 -65 -101 -36 -37 -65 -71 -65 -74 0
-4 38 -7 84 -7 l84 0 5 33 c6 38 -1 49 -14 24 -7 -12 -23 -17 -56 -17 l-46 0
61 58 c67 62 77 91 44 132 -25 31 -99 39 -129 14z"/>
<path d="M8372 6464 c-28 -19 -30 -54 -2 -54 14 0 20 7 20 24 0 31 33 40 62
16 20 -16 21 -21 10 -44 -6 -15 -19 -29 -27 -31 -48 -15 -50 -18 -19 -25 17
-4 36 -10 42 -14 16 -9 15 -79 0 -94 -24 -24 -100 -3 -79 22 14 16 -3 40 -23
33 -9 -4 -16 -15 -16 -25 0 -55 106 -78 154 -33 34 32 34 73 0 100 l-26 20 21
22 c26 29 27 53 1 79 -24 24 -86 27 -118 4z"/>
<path d="M4070 6460 c-8 -5 -25 -10 -37 -10 -13 0 -23 -4 -23 -10 0 -5 14 -10
30 -10 l31 0 -3 -97 -3 -98 -27 -3 c-59 -7 -24 -22 49 -22 46 0 73 4 68 9 -6
5 -19 11 -30 13 -18 3 -20 12 -23 121 -1 64 -6 117 -10 117 -4 0 -14 -5 -22
-10z"/>
<path d="M1700 3691 c0 -1112 -4 -1821 -9 -1821 -5 0 -19 12 -31 27 -14 18
-24 23 -31 16 -7 -7 -2 -27 17 -64 15 -30 35 -79 44 -109 10 -30 22 -56 28
-58 6 -2 17 21 26 50 8 30 29 81 45 113 36 71 27 94 -19 50 l-30 -29 -2 1820
c-3 1723 -4 1819 -20 1822 -17 3 -18 -89 -18 -1817z"/>
<path d="M1949 3718 c-41 -46 -38 -69 5 -29 12 11 33 23 49 26 37 10 36 -8 -7
-112 -27 -67 -31 -85 -20 -94 17 -14 38 19 53 86 29 123 30 125 57 125 26 0
26 -1 17 -52 -18 -115 -2 -192 32 -157 12 12 13 21 5 46 -6 17 -10 59 -8 94
l3 64 44 5 c25 3 46 11 49 18 3 9 -26 12 -123 12 l-126 0 -30 -32z"/>
<path d="M2283 3674 c-30 -26 -39 -62 -18 -70 23 -9 42 11 27 29 -16 18 4 37
38 37 35 0 50 -17 50 -58 0 -28 -11 -45 -65 -101 -36 -37 -65 -71 -65 -74 0
-4 38 -7 84 -7 l84 0 5 33 c6 38 -1 49 -14 24 -7 -12 -23 -17 -56 -17 l-46 0
61 58 c67 62 77 91 44 132 -25 31 -99 39 -129 14z"/>
<path d="M1607 1619 c-304 -41 -555 -251 -660 -553 -31 -88 -32 -97 -32 -251
0 -149 2 -166 28 -247 128 -390 525 -628 922 -553 309 58 550 278 637 582 30
103 32 322 5 423 -43 155 -148 319 -269 419 -74 62 -236 143 -328 165 -86 20
-219 27 -303 15z m348 -63 c301 -102 504 -354 540 -668 l6 -58 -780 0 -781 0
0 30 c0 54 31 183 62 257 76 184 239 343 429 420 105 42 173 53 314 49 109 -3
143 -7 210 -30z m545 -778 c-1 -50 -29 -177 -54 -242 -125 -330 -475 -543
-816 -496 -162 22 -290 77 -412 176 -148 121 -255 322 -274 513 l-7 71 782 0
781 0 0 -22z"/>
<path d="M1664 588 c-58 -51 -79 -124 -53 -182 16 -33 57 -50 92 -37 30 12 31
10 17 -41 -8 -26 -17 -38 -32 -40 -12 -2 -23 -9 -26 -15 -3 -10 14 -13 62 -13
64 0 98 16 57 27 -12 3 -21 8 -21 12 0 3 16 74 37 158 20 84 34 155 30 159 -4
4 -15 0 -26 -10 -16 -15 -19 -15 -31 -1 -21 25 -66 18 -106 -17z m100 -10 c7
-12 7 -33 -2 -75 -15 -74 -40 -108 -78 -108 -26 0 -29 4 -32 34 -10 103 72
212 112 149z"/>
<path d="M227 972 c-21 -23 -38 -70 -28 -76 4 -3 15 11 24 30 16 33 42 53 54
41 3 -3 -4 -34 -16 -68 -38 -114 -24 -162 47 -162 23 0 42 -3 42 -7 0 -4 -10
-22 -23 -41 -17 -25 -31 -35 -55 -37 -18 -2 -32 1 -32 7 0 6 5 11 10 11 12 0
13 37 1 44 -15 9 -39 -4 -44 -24 -15 -59 75 -82 133 -34 41 35 54 63 84 182
31 121 33 145 9 140 -13 -2 -25 -28 -43 -97 -20 -74 -31 -98 -52 -114 -22 -17
-30 -18 -43 -7 -20 17 -19 49 5 120 26 76 15 109 -36 110 -11 0 -28 -8 -37
-18z"/>
<path d="M549 860 c-76 -102 -90 -125 -82 -133 3 -4 30 -7 60 -7 41 0 53 -3
53 -15 0 -9 -11 -20 -25 -25 -40 -15 -30 -20 40 -20 62 0 91 15 43 22 -30 4
-37 38 -9 38 28 0 36 18 9 22 -22 3 -23 9 -28 98 l-5 95 -56 -75z m31 -55 l0
-65 -46 0 c-25 0 -44 4 -42 8 4 11 82 122 86 122 1 0 2 -29 2 -65z"/>
</g>
</svg>
